<svg width="106" height="60" viewBox="0 0 106 60" fill="none" xmlns="http://www.w3.org/2000/svg">
<path d="M38.3454 50.7948C38.3604 50.7952 38.3752 50.7985 38.3889 50.8043C38.4026 50.8102 38.4149 50.8187 38.4251 50.8291L38.6309 51.0448C38.4712 51.2194 38.2738 51.359 38.0522 51.4541C37.7927 51.5579 37.513 51.6081 37.2317 51.6012C36.9673 51.6064 36.7046 51.5597 36.46 51.4639C36.2394 51.376 36.0412 51.244 35.8787 51.0767C35.713 50.9032 35.5853 50.6999 35.5032 50.4787C35.4133 50.2321 35.3689 49.9725 35.372 49.7115C35.3684 49.4488 35.4164 49.1878 35.5135 48.9419C35.6033 48.7193 35.7389 48.516 35.9122 48.3439C36.0878 48.1751 36.2979 48.0425 36.5295 47.9542C36.7828 47.8606 37.0526 47.814 37.3243 47.8169C37.5766 47.8111 37.8277 47.8536 38.0625 47.9419C38.2662 48.0262 38.4532 48.143 38.6155 48.2875L38.4432 48.5179C38.4312 48.5341 38.4164 48.5482 38.3994 48.5596C38.3791 48.5728 38.3545 48.5789 38.33 48.5767C38.3033 48.575 38.2775 48.5665 38.2554 48.5522L38.1628 48.4909L38.0342 48.4125C37.9787 48.3834 37.9211 48.358 37.8619 48.3365C37.7856 48.3105 37.7073 48.29 37.6278 48.2753C37.5268 48.2575 37.4243 48.2493 37.3217 48.2508C37.1261 48.2484 36.9319 48.2834 36.7507 48.3537C36.5817 48.4188 36.4291 48.5174 36.3031 48.6429C36.1749 48.7764 36.076 48.9331 36.0125 49.1037C35.94 49.2988 35.9043 49.5046 35.907 49.7115C35.9039 49.9217 35.9396 50.1307 36.0125 50.3291C36.0752 50.4983 36.1723 50.654 36.298 50.7875C36.4158 50.9119 36.5618 51.0092 36.725 51.0718C36.8929 51.1381 37.0731 51.1715 37.2548 51.1698C37.3598 51.1714 37.4648 51.1648 37.5686 51.1502C37.7382 51.1305 37.9009 51.0743 38.0445 50.986C38.1165 50.9407 38.1844 50.8899 38.2477 50.834C38.2741 50.81 38.3089 50.7961 38.3454 50.7948V50.7948Z" fill="#AFB1B8"/>
<path d="M44.2871 49.7108C44.2903 49.9709 44.2432 50.2292 44.1482 50.473C44.0644 50.6941 43.9323 50.8958 43.7608 51.0648C43.5892 51.2338 43.382 51.3662 43.1528 51.4533C42.6492 51.6363 42.0925 51.6363 41.589 51.4533C41.3613 51.3648 41.1554 51.2321 40.9845 51.0636C40.8131 50.8916 40.68 50.6882 40.5936 50.4657C40.4083 49.972 40.4083 49.4325 40.5936 48.9388C40.6813 48.7162 40.8141 48.5122 40.9845 48.3384C41.1568 48.1752 41.3626 48.0476 41.589 47.9635C42.0919 47.7772 42.6499 47.7772 43.1528 47.9635C43.3813 48.0519 43.588 48.1846 43.7598 48.3531C43.9292 48.5235 44.0612 48.7243 44.1482 48.9437C44.2435 49.1892 44.2906 49.4492 44.2871 49.7108ZM43.747 49.7108C43.751 49.5028 43.718 49.2956 43.6492 49.0981C43.5916 48.929 43.4979 48.7729 43.374 48.6399C43.2534 48.5139 43.1049 48.4152 42.9393 48.3507C42.5734 48.2167 42.1684 48.2167 41.8024 48.3507C41.6368 48.4152 41.4884 48.5139 41.3678 48.6399C41.2422 48.7722 41.1475 48.9284 41.09 49.0981C40.9591 49.4971 40.9591 49.9246 41.09 50.3235C41.148 50.4931 41.2427 50.6492 41.3678 50.7818C41.4885 50.907 41.637 51.0049 41.8024 51.0685C42.169 51.1991 42.5728 51.1991 42.9393 51.0685C43.1048 51.0049 43.2533 50.907 43.374 50.7818C43.4974 50.6484 43.591 50.4925 43.6492 50.3235C43.7183 50.1261 43.7513 49.9189 43.747 49.7108V49.7108Z" fill="#AFB1B8"/>
<path d="M48.3408 50.3535L48.3948 50.4907C48.4154 50.4417 48.4334 50.3976 48.4539 50.3535C48.4736 50.3074 48.4959 50.2624 48.5208 50.2187L49.8352 47.9422C49.8609 47.903 49.884 47.8785 49.9098 47.8712C49.9447 47.861 49.9813 47.8569 50.0178 47.8589H50.4062V51.5615H49.9458V48.8391C49.9458 48.8048 49.9458 48.7656 49.9458 48.7239C49.9433 48.6815 49.9433 48.6389 49.9458 48.5965L48.6237 50.9048C48.6069 50.9394 48.58 50.9686 48.5463 50.989C48.5125 51.0095 48.4733 51.0202 48.4334 51.02H48.3588C48.3187 51.0205 48.2794 51.0099 48.2456 50.9894C48.2118 50.969 48.185 50.9396 48.1684 50.9048L46.8078 48.5818C46.8078 48.6259 46.8078 48.67 46.8078 48.7141C46.8078 48.7582 46.8078 48.7974 46.8078 48.8317V51.5542H46.3628V47.8589H46.7512C46.7877 47.8569 46.8243 47.861 46.8592 47.8712C46.8911 47.8862 46.9165 47.9113 46.9312 47.9422L48.2739 50.2211C48.3003 50.2633 48.3227 50.3075 48.3408 50.3535V50.3535Z" fill="#AFB1B8"/>
<path d="M53.2871 50.1695V51.5564H52.7727V47.8588H53.9199C54.1364 47.8548 54.3524 47.8821 54.5603 47.9396C54.7268 47.9846 54.8812 48.0631 55.013 48.17C55.1273 48.2701 55.2154 48.3943 55.2703 48.5326C55.331 48.6835 55.3607 48.844 55.3577 49.0056C55.36 49.1677 55.3276 49.3286 55.2625 49.4785C55.2007 49.6203 55.1057 49.7469 54.9847 49.8485C54.8528 49.9598 54.6976 50.0433 54.5295 50.0935C54.3292 50.1545 54.1198 50.1835 53.9096 50.1793L53.2871 50.1695ZM53.2871 49.7725H53.9096C54.0448 49.7742 54.1794 49.7552 54.3083 49.7162C54.4146 49.6821 54.5126 49.6279 54.5964 49.5569C54.6736 49.4891 54.7335 49.4052 54.7713 49.3118C54.8134 49.2131 54.8344 49.1073 54.833 49.0006C54.839 48.8979 54.8214 48.7951 54.7814 48.6994C54.7414 48.6038 54.68 48.5176 54.6015 48.4469C54.405 48.3007 54.1582 48.2299 53.9096 48.2484H53.2871V49.7725Z" fill="#AFB1B8"/>
<path d="M60.201 51.5614H59.7946C59.7538 51.5629 59.7138 51.5508 59.6814 51.5271C59.6522 51.504 59.6293 51.4746 59.6145 51.4413L59.2647 50.5468H57.508L57.1453 51.4413C57.132 51.474 57.1098 51.5028 57.081 51.5246C57.0483 51.5497 57.0072 51.5628 56.9652 51.5614H56.5588L58.1021 47.8584H58.6371L60.201 51.5614ZM57.6546 50.1866H59.1053L58.4931 48.6794C58.4463 48.566 58.4076 48.4497 58.3773 48.3314L58.3182 48.525C58.3002 48.5838 58.2796 48.6377 58.2616 48.6818L57.6546 50.1866Z" fill="#AFB1B8"/>
<path d="M62.4233 47.8756C62.4541 47.8917 62.4805 47.9143 62.5005 47.9418L64.7511 50.7331C64.7511 50.689 64.7511 50.6449 64.7511 50.6032C64.7511 50.5616 64.7511 50.5199 64.7511 50.4807V47.8585H65.2115V51.5614H64.9543C64.9178 51.5625 64.8816 51.5549 64.8489 51.5394C64.8171 51.5217 64.7892 51.4984 64.7666 51.4708L62.5185 48.6819C62.521 48.7243 62.521 48.7669 62.5185 48.8093C62.5185 48.851 62.5185 48.8878 62.5185 48.9221V51.5614H62.0581V47.8585H62.3308C62.3626 47.8576 62.3942 47.8635 62.4233 47.8756V47.8756Z" fill="#AFB1B8"/>
<path d="M69.0029 50.0887V51.5591H68.4884V50.0887L67.066 47.8586H67.5265C67.5661 47.8564 67.6053 47.8677 67.6371 47.8905C67.6651 47.9142 67.6886 47.9424 67.7065 47.9738L68.5965 49.4123C68.6325 49.4736 68.6634 49.5299 68.6891 49.5839C68.7148 49.6378 68.7354 49.6892 68.7534 49.7407L68.8203 49.5814C68.8452 49.5232 68.8744 49.4667 68.9077 49.4123L69.7848 47.964C69.8033 47.9351 69.8258 47.9087 69.8517 47.8856C69.8822 47.8602 69.9218 47.847 69.9623 47.8488H70.4279L69.0029 50.0887Z" fill="#AFB1B8"/>
<path d="M48.0862 41.6443C48.31 41.6712 48.5363 41.6933 48.7652 41.7129C52.2358 40.2337 55.1718 37.8127 57.2062 34.7526C59.2406 31.6924 60.2832 28.1289 60.2036 24.5073L56.3788 20.8633C57.1565 24.7191 56.7927 28.705 55.3282 32.3751C53.8636 36.0452 51.3561 39.2546 48.0862 41.6443V41.6443Z" fill="#AFB1B8"/>
<path d="M46.7205 41.4748L46.8233 41.4944C50.3176 39.1132 52.9816 35.788 54.471 31.9488C55.9604 28.1097 56.2065 23.9331 55.1777 19.9592L49.7299 14.769C51.9333 19.0353 52.8203 23.8098 52.2876 28.5374C51.7548 33.265 49.8243 37.7514 46.7205 41.4748V41.4748Z" fill="#AFB1B8"/>
<path d="M65.1962 28.7861C64.2706 32.7654 62.0228 36.3541 58.7864 39.0196C57.8412 39.8023 56.8217 40.4996 55.741 41.1025C58.3763 40.3646 60.7986 39.0598 62.821 37.289C64.8434 35.5181 66.4119 33.3284 67.4056 30.8887L65.1962 28.7861Z" fill="#AFB1B8"/>
<path d="M64.3292 28.2002L61.1835 25.2031C61.1233 28.6201 60.1037 31.9594 58.2306 34.8739C56.3575 37.7885 53.6993 40.1718 50.5322 41.7764H50.5477C51.2534 41.7761 51.9586 41.736 52.6594 41.6563C55.6192 40.5053 58.2339 38.6742 60.2702 36.3262C62.3064 33.9782 63.7009 31.1865 64.3292 28.2002V28.2002Z" fill="#AFB1B8"/>
<path d="M47.1757 12.5803L43.4229 9C40.0681 10.2351 37.1828 12.4064 35.1446 15.2297C33.1065 18.053 32.0105 21.3968 32 24.8234V24.8234C32.0126 28.6097 33.3502 32.2838 35.8012 35.2643C38.2521 38.2448 41.6764 40.3614 45.5321 41.2791C48.974 37.2838 50.9892 32.347 51.2847 27.186C51.5803 22.025 50.1409 16.9086 47.1757 12.5803V12.5803Z" fill="#AFB1B8"/>
<path d="M73 27.6492C72.9864 23.157 71.1073 18.8525 67.7732 15.676C64.4391 12.4995 59.921 10.7092 55.2059 10.6963V10.6963C53.0271 10.6941 50.8668 11.0772 48.8347 11.826L71.8117 33.7168C72.5984 31.7817 73.0014 29.7244 73 27.6492V27.6492Z" fill="#AFB1B8"/>
</svg>
